<!-- Generated by IcoMoon.io -->
<svg version="1.1" xmlns="http://www.w3.org/2000/svg" width="512" height="512" viewBox="0 0 512 512">
<title>instagram</title>
<path fill="#fff" d="M256 0c-69.546 0-78.23 0.32-105.536 1.536-27.264 1.28-45.824 5.568-62.144 11.904-16.832 6.528-31.126 15.296-45.355 29.526s-23.018 28.502-29.526 45.354c-6.336 16.32-10.646 34.88-11.904 62.144-1.28 27.306-1.536 35.989-1.536 105.536s0.32 78.23 1.536 105.536c1.28 27.243 5.568 45.824 11.904 62.144 6.528 16.81 15.296 31.125 29.526 45.354 14.23 14.208 28.501 23.019 45.355 29.526 16.341 6.315 34.901 10.646 62.144 11.904 27.306 1.28 35.989 1.536 105.536 1.536s78.23-0.32 105.536-1.536c27.243-1.28 45.824-5.589 62.144-11.904 16.81-6.528 31.125-15.317 45.354-29.526 14.208-14.229 23.019-28.48 29.526-45.355 6.315-16.32 10.646-34.901 11.904-62.144 1.28-27.307 1.536-35.99 1.536-105.536s-0.32-78.23-1.536-105.536c-1.28-27.243-5.589-45.846-11.904-62.144-6.528-16.832-15.317-31.126-29.526-45.355-14.229-14.23-28.48-23.018-45.355-29.526-16.32-6.336-34.901-10.646-62.144-11.904-27.307-1.28-35.99-1.536-105.536-1.536zM256 46.080c68.331 0 76.48 0.342 103.466 1.514 24.96 1.173 38.507 5.312 47.51 8.853 11.99 4.63 20.48 10.176 29.483 19.115 8.938 8.96 14.486 17.472 19.115 29.462 3.498 9.002 7.68 22.549 8.81 47.51 1.216 27.008 1.493 35.114 1.493 103.466s-0.32 76.48-1.579 103.466c-1.301 24.96-5.462 38.507-8.981 47.51-4.779 11.99-10.219 20.48-19.178 29.483-8.938 8.938-17.579 14.486-29.44 19.115-8.96 3.498-22.72 7.68-47.68 8.81-27.178 1.216-35.178 1.493-103.659 1.493-68.501 0-76.501-0.32-103.659-1.579-24.981-1.301-38.742-5.462-47.702-8.981-12.138-4.779-20.48-10.219-29.418-19.178-8.981-8.938-14.72-17.579-19.2-29.44-3.52-8.96-7.659-22.72-8.96-47.68-0.96-26.88-1.301-35.178-1.301-103.339 0-68.181 0.342-76.501 1.301-103.702 1.301-24.96 5.44-38.698 8.96-47.659 4.48-12.16 10.219-20.48 19.2-29.462 8.939-8.939 17.28-14.698 29.418-19.157 8.96-3.541 22.422-7.702 47.382-8.981 27.2-0.96 35.2-1.28 103.659-1.28l0.96 0.64zM256 124.544c-72.64 0-131.456 58.88-131.456 131.456 0 72.64 58.88 131.456 131.456 131.456 72.64 0 131.456-58.88 131.456-131.456 0-72.64-58.88-131.456-131.456-131.456zM256 341.334c-47.147 0-85.334-38.187-85.334-85.334s38.186-85.334 85.334-85.334 85.334 38.186 85.334 85.334-38.187 85.334-85.334 85.334zM423.382 119.36c0 16.96-13.781 30.72-30.72 30.72-16.96 0-30.72-13.781-30.72-30.72s13.781-30.698 30.72-30.698c16.918-0.022 30.72 13.76 30.72 30.698z"></path>
</svg>
