<!-- Generated by IcoMoon.io -->
<svg version="1.1" xmlns="http://www.w3.org/2000/svg" width="124" height="124" viewBox="0 0 124 124">
<title>earth</title>
<path fill="#fff" d="M62 0c-34.242 0-62 27.758-62 62s27.758 62 62 62 62-27.758 62-62-27.758-62-62-62zM62 116.25c-7.624 0-14.879-1.576-21.461-4.414l28.233-31.762c0.63-0.709 0.979-1.625 0.979-2.574v-11.625c0-2.14-1.735-3.875-3.875-3.875-13.682 0-28.118-14.224-28.26-14.365-0.727-0.727-1.712-1.135-2.74-1.135h-15.5c-2.14 0-3.875 1.735-3.875 3.875v23.25c0 1.468 0.829 2.81 2.142 3.466l13.358 6.679v22.752c-14.053-9.803-23.25-26.087-23.25-44.522 0-8.321 1.876-16.203 5.224-23.25h14.151c1.028 0 2.013-0.408 2.74-1.135l15.5-15.5c0.727-0.727 1.135-1.712 1.135-2.74v-9.374c4.912-1.462 10.114-2.251 15.5-2.251 8.526 0 16.59 1.969 23.769 5.473-0.502 0.424-0.99 0.868-1.459 1.336-4.392 4.391-6.81 10.23-6.81 16.44s2.418 12.049 6.81 16.44c4.412 4.412 10.319 6.813 16.424 6.813 0.383 0 0.768-0.010 1.153-0.029 1.673 6.273 4.693 22.603-1.018 45.087-0.054 0.211-0.084 0.422-0.102 0.633-9.848 10.060-23.577 16.306-38.767 16.306z"></path>
</svg>
