<!-- Generated by IcoMoon.io -->
<svg version="1.1" xmlns="http://www.w3.org/2000/svg" width="512" height="512" viewBox="0 0 512 512">
<title>facebook</title>
<path fill="#3b5998" d="M483.755 0h-455.51c-15.595 0-28.245 12.65-28.245 28.245v455.51c0 15.616 12.65 28.245 28.245 28.245h245.206v-198.272h-66.752v-77.248h66.752v-57.066c0-66.112 40.406-102.080 99.392-102.080 28.267 0 52.565 2.070 59.648 3.008v69.12h-40.981c-32 0-38.229 15.381-38.229 37.781v49.302h76.459l-9.92 77.44h-66.538v198.016h130.453c15.637 0 28.267-12.63 28.267-28.245v-455.51c0-15.595-12.63-28.245-28.245-28.245z"></path>
</svg>
