<!-- Generated by IcoMoon.io -->
<svg version="1.1" xmlns="http://www.w3.org/2000/svg" width="512" height="512" viewBox="0 0 512 512">
<title>linkedin</title>
<path fill="#0077b5" d="M436.202 436.31h-75.818v-118.805c0-28.331-0.576-64.79-39.51-64.79-39.531 0-45.568 30.826-45.568 62.698v120.896h-75.819v-244.31h72.832v33.302h0.981c10.176-19.2 34.923-39.466 71.894-39.466 76.822 0 91.029 50.56 91.029 116.374v134.101zM113.856 158.571c-24.406 0-44.011-19.755-44.011-44.053 0-24.278 19.626-44.010 44.011-44.010 24.32 0 44.032 19.733 44.032 44.011 0 24.298-19.733 44.054-44.032 44.054zM151.872 436.31h-76.032v-244.31h76.032v244.31zM474.134 0h-436.352c-20.886 0-37.782 16.512-37.782 36.886v438.229c0 20.394 16.896 36.886 37.782 36.886h436.288c20.864 0 37.931-16.49 37.931-36.885v-438.229c0-20.373-17.067-36.886-37.93-36.886h0.064z"></path>
</svg>
