<!-- Generated by IcoMoon.io -->
<svg version="1.1" xmlns="http://www.w3.org/2000/svg" width="512" height="512" viewBox="0 0 512 512">
<title>twitter</title>
<path fill="#fff" d="M511.019 97.472c-18.88 8.299-39.040 13.952-60.267 16.534 21.632-13.034 38.272-33.579 46.144-58.090-20.288 11.84-42.774 20.459-66.709 25.259-19.115-20.459-46.358-33.258-76.608-33.258-57.962 0-104.96 46.998-104.96 104.896 0 8.32 0.96 16.32 2.709 23.978-87.254-4.118-164.587-46.016-216.341-109.355-9.11 15.403-14.208 33.302-14.208 52.8 0 36.48 18.56 68.544 46.678 87.382-17.216-0.554-33.408-5.291-47.531-13.142v1.302c0 50.88 36.117 93.312 84.181 102.976-8.811 2.368-18.112 3.648-27.648 3.648-6.698 0-13.12-0.64-19.541-1.834 13.462 41.664 52.16 72.043 98.219 72.896-35.84 28.139-81.258 44.906-130.176 44.906-8.32 0-16.619-0.49-24.96-1.43 46.699 29.738 101.718 47.125 161.216 47.125 193.152 0 298.646-159.915 298.646-298.368 0-4.458 0-8.96-0.32-13.44 20.502-14.698 38.4-33.28 52.48-54.358l-1.002-0.427z"></path>
</svg>
